<?xml version="1.0" encoding="utf-8"?>
<!-- Svg Vector Icons : http://www.onlinewebfonts.com/icon -->
<!DOCTYPE svg PUBLIC "-//W3C//DTD SVG 1.1//EN" "http://www.w3.org/Graphics/SVG/1.1/DTD/svg11.dtd">
<svg version="1.1" xmlns="http://www.w3.org/2000/svg" xmlns:xlink="http://www.w3.org/1999/xlink" x="0px" y="0px" viewBox="0 0 1000 1000" enable-background="new 0 0 1000 1000" xml:space="preserve">
<metadata> Svg Vector Icons : http://www.onlinewebfonts.com/icon </metadata>
<g><path d="M499.1,10.9C229,10.9,10,229.8,10,500c0,270.2,219,489.1,489.1,489.1S990,770.2,990,500C990,229.8,769.3,10.9,499.1,10.9z M499.1,973.2C239.5,973.2,27.7,761.3,27.7,500c0-259.6,211.9-471.5,471.5-471.5c259.6,0,471.5,211.9,471.5,471.5C972.3,761.3,760.5,973.2,499.1,973.2z"/><path d="M264.3,332.3c0,32.2,26.1,58.3,58.3,58.3c32.2,0,58.3-26.1,58.3-58.3c0-32.2-26.1-58.3-58.3-58.3C290.4,274,264.3,300.1,264.3,332.3z"/><path d="M617.4,332.3c0,32.2,26.1,58.3,58.3,58.3c32.2,0,58.3-26.1,58.3-58.3c0-32.2-26.1-58.3-58.3-58.3C643.5,274,617.4,300.1,617.4,332.3z"/><path d="M303.1,680.1l10.6,14.1c7.1-7.1,188.9-153.6,369,0l10.6-14.1C504.4,517.7,304.9,680.1,303.1,680.1z"/></g>
</svg>